<?xml version="1.0" standalone="no"?>
<!DOCTYPE svg PUBLIC "-//W3C//DTD SVG 20010904//EN"
 "http://www.w3.org/TR/2001/REC-SVG-20010904/DTD/svg10.dtd">
<svg version="1.0" xmlns="http://www.w3.org/2000/svg"
 width="400.000000pt" height="400.000000pt" viewBox="0 0 400.000000 400.000000"
 preserveAspectRatio="xMidYMid meet">

<g transform="translate(0.000000,400.000000) scale(0.100000,-0.100000)"
fill="#fe5800" stroke="none">
<path d="M1935 3990 c-135 -20 -200 -68 -283 -209 -24 -41 -27 -59 -30 -152
-4 -102 -3 -109 27 -172 42 -88 138 -178 213 -200 29 -9 71 -19 93 -22 22 -3
65 -10 96 -14 121 -19 251 -111 301 -212 47 -99 56 -124 62 -189 9 -85 24
-146 49 -194 24 -50 111 -136 157 -158 53 -25 184 -58 230 -58 111 0 271 -116
327 -236 26 -54 28 -69 28 -174 0 -111 -1 -117 -35 -185 -41 -82 -99 -141
-178 -183 -66 -34 -118 -48 -220 -58 -40 -3 -75 -11 -78 -15 -3 -5 -13 -9 -22
-9 -73 0 -212 -139 -245 -245 -9 -27 -20 -91 -25 -141 -14 -136 -67 -239 -163
-314 -48 -39 -130 -70 -184 -70 -53 0 -180 -27 -219 -47 -80 -40 -136 -93
-174 -166 -36 -71 -37 -74 -37 -187 0 -114 0 -115 38 -182 45 -81 112 -140
192 -170 48 -18 79 -22 156 -22 88 1 101 4 157 34 132 70 189 158 217 335 20
129 35 170 86 246 38 56 142 139 174 139 8 0 23 4 33 9 9 5 64 17 122 26 58 9
109 20 114 25 6 6 17 10 25 10 28 0 115 68 155 119 43 57 80 157 101 275 8 45
22 101 31 126 19 55 78 146 104 160 10 5 24 16 32 23 32 30 128 60 268 83 116
19 218 68 260 126 69 94 119 243 99 296 -5 13 -9 36 -9 52 0 16 -4 32 -10 35
-5 3 -10 15 -10 27 0 29 -64 113 -117 153 -62 47 -131 71 -256 88 -120 17
-167 36 -247 102 -83 68 -125 145 -140 253 -31 235 -70 311 -202 390 -55 32
-162 62 -229 62 -74 0 -170 45 -246 114 -65 59 -119 161 -128 244 -9 75 -31
180 -45 217 -34 90 -144 182 -252 211 -57 15 -84 15 -163 4z"/>
<path d="M1095 3176 c-125 -28 -237 -141 -274 -278 -35 -125 9 -280 104 -366
85 -78 138 -101 267 -116 206 -24 308 -97 394 -280 24 -52 24 -201 0 -271 -39
-113 -103 -184 -216 -239 -60 -29 -94 -39 -170 -47 -52 -5 -103 -14 -112 -19
-10 -6 -26 -10 -35 -10 -37 -1 -128 -75 -170 -138 -54 -80 -68 -127 -67 -227
0 -101 21 -162 80 -234 81 -99 169 -141 295 -142 218 -2 365 137 390 371 16
150 39 209 113 289 75 79 148 113 283 132 127 18 200 45 254 96 54 50 108 129
127 184 7 19 12 74 12 122 0 137 -54 240 -165 316 -56 38 -114 57 -230 75
-150 24 -258 83 -323 180 -40 59 -72 155 -72 217 0 59 -22 145 -53 207 -24 49
-121 132 -189 161 -54 24 -178 32 -243 17z"/>
<path d="M273 2366 c-100 -34 -196 -122 -236 -218 -32 -77 -39 -140 -23 -216
21 -99 41 -138 111 -208 79 -81 143 -106 270 -108 84 -1 95 2 166 36 60 29 84
48 116 90 78 102 88 129 88 254 0 102 -2 115 -29 168 -39 77 -107 143 -184
179 -52 24 -80 30 -150 33 -56 2 -102 -2 -129 -10z"/>
</g>
</svg>
