<?xml version="1.0" standalone="no"?>
<!DOCTYPE svg PUBLIC "-//W3C//DTD SVG 20010904//EN"
 "http://www.w3.org/TR/2001/REC-SVG-20010904/DTD/svg10.dtd">
<svg version="1.0" xmlns="http://www.w3.org/2000/svg"
 width="700.000000pt" height="700.000000pt" viewBox="0 0 700.000000 700.000000"
 preserveAspectRatio="xMidYMid meet">
<metadata>
Created by potrace 1.14, written by Peter Selinger 2001-2017
</metadata>
<g transform="translate(0.000000,700.000000) scale(0.100000,-0.100000)"
fill="#000000" stroke="none">
<path d="M3429 6988 c-178 -23 -288 -69 -379 -159 -61 -60 -146 -180 -180
-254 -21 -46 -32 -151 -32 -305 0 -91 3 -114 26 -170 65 -161 212 -319 354
-382 65 -29 160 -53 257 -64 164 -19 285 -59 398 -134 135 -89 207 -174 275
-326 47 -104 68 -176 77 -259 12 -106 36 -229 54 -270 37 -85 66 -128 134
-201 96 -102 160 -145 262 -178 142 -44 211 -59 338 -71 198 -19 447 -208 548
-415 40 -82 44 -114 44 -315 0 -194 -7 -222 -79 -346 -139 -237 -348 -355
-681 -385 -38 -3 -88 -13 -110 -21 -22 -8 -60 -19 -85 -25 -110 -26 -278 -182
-364 -338 -36 -66 -67 -187 -81 -315 -24 -222 -100 -392 -231 -516 -116 -110
-232 -162 -387 -174 -154 -13 -318 -54 -410 -102 -107 -57 -220 -174 -275
-286 -52 -105 -59 -148 -56 -344 2 -165 9 -191 73 -301 76 -130 203 -236 349
-290 58 -21 87 -25 212 -28 190 -5 247 9 380 95 184 118 261 255 315 560 33
183 60 270 117 366 74 126 268 294 340 295 10 0 35 7 55 15 21 8 115 28 208
45 94 17 183 38 199 46 16 8 35 14 43 14 39 0 170 94 248 178 93 100 171 304
219 574 33 188 126 360 243 453 109 87 211 119 592 191 163 31 345 147 408
259 104 187 159 376 134 460 -5 16 -12 53 -14 82 -3 29 -13 63 -21 75 -9 12
-16 32 -16 43 0 31 -52 113 -115 183 -126 138 -274 205 -525 238 -231 30 -357
90 -505 238 -75 76 -132 171 -159 266 -14 51 -19 74 -30 148 -40 260 -70 364
-137 462 -110 163 -334 278 -579 296 -101 8 -181 28 -265 69 -229 110 -388
322 -425 570 -7 44 -14 89 -16 100 -2 11 -6 34 -9 52 -10 75 -47 209 -71 257
-94 187 -345 346 -554 351 -30 0 -80 -3 -111 -7z"/>
<path d="M1903 5554 c-231 -61 -433 -289 -479 -538 -8 -45 -8 -140 0 -201 4
-33 8 -62 8 -65 2 -20 55 -144 80 -185 43 -70 71 -102 141 -163 124 -107 218
-144 452 -177 326 -47 490 -154 634 -416 51 -95 69 -179 65 -319 -2 -107 -6
-143 -25 -215 -12 -45 -60 -148 -71 -153 -5 -2 -8 -8 -8 -14 0 -13 -59 -86
-104 -129 -90 -88 -296 -191 -407 -204 -134 -15 -219 -29 -263 -41 -28 -8 -64
-17 -81 -20 -74 -14 -200 -113 -282 -219 -104 -135 -137 -249 -130 -440 3 -71
8 -143 12 -160 12 -58 74 -170 129 -237 143 -173 301 -243 534 -240 187 2 327
58 447 177 133 131 183 252 220 530 30 227 76 327 214 465 62 62 106 96 158
122 65 33 196 73 271 83 17 2 39 6 49 9 10 2 39 7 65 11 71 8 216 53 270 82
126 68 292 277 327 410 15 56 21 233 10 308 -26 187 -124 339 -289 448 -92 61
-165 83 -450 138 -131 25 -250 73 -348 141 -162 111 -270 316 -287 543 -10
135 -44 265 -95 365 -25 47 -103 127 -192 194 -84 63 -138 89 -225 109 -78 19
-282 19 -350 1z"/>
<path d="M510 4146 c-126 -27 -274 -131 -376 -266 -37 -48 -89 -163 -107 -235
-39 -155 7 -398 100 -522 82 -111 210 -219 299 -252 79 -30 96 -33 251 -38
156 -6 191 1 308 60 95 47 141 83 198 155 136 172 152 220 152 457 l0 180 -32
67 c-71 150 -169 256 -305 331 -44 24 -119 54 -163 63 -50 11 -274 11 -325 0z"/>
</g>
</svg>
